# MagicaVoxel @ Ephtracy

# group
g runner(1)

# material
mtllib runner(1).mtl
usemtl palette

# normals
vn -1 0 0
vn 1 0 0
vn 0 0 1
vn 0 0 -1
vn 0 -1 0
vn 0 1 0

# texcoords
vt 0.0332031 0.5
vt 0.369141 0.5
vt 0.537109 0.5
vt 0.865234 0.5
vt 0.958984 0.5
vt 0.982422 0.5
vt 0.994141 0.5

# verts
v -7 6 0.5
v -7 6 -0.5
v -7 7 0.5
v -7 7 -0.5
v -4 10 1.5
v -4 10 0.5
v -4 10 -0.5
v -4 10 -1.5
v -4 11 1.5
v -4 11 0.5
v -4 11 -0.5
v -4 11 -1.5
v -4 12 0.5
v -4 12 -0.5
v -3 3 1.5
v -3 3 -1.5
v -3 6 0.5
v -3 6 -0.5
v -3 7 1.5
v -3 7 0.5
v -3 7 -0.5
v -3 7 -1.5
v -3 10 2.5
v -3 10 1.5
v -3 10 0.5
v -3 10 -0.5
v -3 10 -1.5
v -3 10 -2.5
v -3 11 1.5
v -3 11 0.5
v -3 11 -0.5
v -3 11 -1.5
v -3 12 2.5
v -3 12 1.5
v -3 12 0.5
v -3 12 -0.5
v -3 12 -1.5
v -3 12 -2.5
v -3 13 1.5
v -3 13 0.5
v -3 14 -0.5
v -3 14 -1.5
v -2 0 0.5
v -2 0 -0.5
v -2 3 0.5
v -2 3 -0.5
v -2 12 -1.5
v -2 12 -2.5
v -2 13 -1.5
v -2 13 -2.5
v -1 12 1.5
v -1 12 -0.5
v -1 13 1.5
v -1 13 -0.5
v 0 13 0.5
v 0 13 -0.5
v 0 14 0.5
v 0 14 -0.5
v 1 0 0.5
v 1 0 -0.5
v 1 3 0.5
v 1 3 -0.5
v 1 11 2.5
v 1 11 1.5
v 1 11 -1.5
v 1 11 -2.5
v 1 12 2.5
v 1 12 1.5
v 1 13 -1.5
v 1 13 -2.5
v 2 10 2.5
v 2 10 1.5
v 2 11 2.5
v 2 11 1.5
v -2 10 2.5
v -2 10 1.5
v -2 11 2.5
v -2 11 1.5
v -2 12 1.5
v -2 12 0.5
v -2 13 1.5
v -2 13 0.5
v -2 13 -0.5
v -2 13 -1.5
v -2 14 -0.5
v -2 14 -1.5
v -1 0 0.5
v -1 0 -0.5
v -1 3 0.5
v -1 3 -0.5
v -1 11 2.5
v -1 11 1.5
v -1 12 2.5
v -1 12 1.5
v -1 12 -1.5
v -1 12 -2.5
v -1 13 -1.5
v -1 13 -2.5
v 0 11 -1.5
v 0 11 -2.5
v 0 12 -1.5
v 0 12 -2.5
v 1 13 0.5
v 1 13 -0.5
v 1 14 0.5
v 1 14 -0.5
v 2 0 0.5
v 2 0 -0.5
v 2 3 0.5
v 2 3 -0.5
v 2 11 2.5
v 2 11 1.5
v 2 11 -1.5
v 2 11 -2.5
v 2 12 2.5
v 2 12 1.5
v 2 13 -1.5
v 2 13 -2.5
v 3 3 1.5
v 3 3 -1.5
v 3 6 0.5
v 3 6 -0.5
v 3 7 1.5
v 3 7 0.5
v 3 7 -0.5
v 3 7 -1.5
v 3 10 2.5
v 3 10 1.5
v 3 10 -1.5
v 3 10 -2.5
v 3 11 2.5
v 3 11 1.5
v 3 11 0.5
v 3 11 -0.5
v 3 11 -1.5
v 3 11 -2.5
v 3 12 1.5
v 3 12 0.5
v 3 12 -0.5
v 3 12 -1.5
v 3 13 1.5
v 3 13 -1.5
v 4 10 1.5
v 4 10 -1.5
v 4 11 0.5
v 4 11 -0.5
v 4 12 1.5
v 4 12 0.5
v 4 12 -0.5
v 4 12 -1.5
v 7 6 0.5
v 7 6 -0.5
v 7 7 0.5
v 7 7 -0.5
v -3 10 2.5
v -3 12 2.5
v -2 10 2.5
v -2 11 2.5
v -1 11 2.5
v -1 12 2.5
v 1 11 2.5
v 1 12 2.5
v 2 10 2.5
v 2 11 2.5
v 2 12 2.5
v 3 10 2.5
v 3 11 2.5
v -4 10 1.5
v -4 11 1.5
v -3 3 1.5
v -3 7 1.5
v -3 10 1.5
v -3 11 1.5
v -3 12 1.5
v -3 13 1.5
v -2 8 1.5
v -2 10 1.5
v -2 11 1.5
v -2 12 1.5
v -2 13 1.5
v -1 8 1.5
v -1 10 1.5
v -1 11 1.5
v -1 12 1.5
v -1 13 1.5
v 1 8 1.5
v 1 10 1.5
v 1 11 1.5
v 1 12 1.5
v 2 8 1.5
v 2 10 1.5
v 2 11 1.5
v 2 12 1.5
v 3 3 1.5
v 3 7 1.5
v 3 10 1.5
v 3 11 1.5
v 3 12 1.5
v 3 13 1.5
v 4 10 1.5
v 4 12 1.5
v -7 6 0.5
v -7 7 0.5
v -6 6 0.5
v -6 7 0.5
v -4 11 0.5
v -4 12 0.5
v -3 6 0.5
v -3 7 0.5
v -3 11 0.5
v -3 12 0.5
v -2 0 0.5
v -2 3 0.5
v -1 0 0.5
v -1 3 0.5
v 0 13 0.5
v 0 14 0.5
v 1 0 0.5
v 1 3 0.5
v 1 13 0.5
v 1 14 0.5
v 2 0 0.5
v 2 3 0.5
v 3 6 0.5
v 3 7 0.5
v 6 6 0.5
v 6 7 0.5
v 7 6 0.5
v 7 7 0.5
v -4 10 -0.5
v -4 11 -0.5
v -3 10 -0.5
v -3 11 -0.5
v -3 12 -0.5
v -3 14 -0.5
v -2 13 -0.5
v -2 14 -0.5
v -1 12 -0.5
v -1 13 -0.5
v 3 11 -0.5
v 3 12 -0.5
v 4 11 -0.5
v 4 12 -0.5
v -4 10 0.5
v -4 11 0.5
v -3 10 0.5
v -3 11 0.5
v -3 12 0.5
v -3 13 0.5
v -2 12 0.5
v -2 13 0.5
v 3 11 0.5
v 3 12 0.5
v 4 11 0.5
v 4 12 0.5
v -7 6 -0.5
v -7 7 -0.5
v -6 6 -0.5
v -6 7 -0.5
v -4 11 -0.5
v -4 12 -0.5
v -3 6 -0.5
v -3 7 -0.5
v -3 11 -0.5
v -3 12 -0.5
v -2 0 -0.5
v -2 3 -0.5
v -1 0 -0.5
v -1 3 -0.5
v 0 13 -0.5
v 0 14 -0.5
v 1 0 -0.5
v 1 3 -0.5
v 1 13 -0.5
v 1 14 -0.5
v 2 0 -0.5
v 2 3 -0.5
v 3 6 -0.5
v 3 7 -0.5
v 6 6 -0.5
v 6 7 -0.5
v 7 6 -0.5
v 7 7 -0.5
v -4 10 -1.5
v -4 11 -1.5
v -3 3 -1.5
v -3 7 -1.5
v -3 10 -1.5
v -3 11 -1.5
v -3 12 -1.5
v -3 14 -1.5
v -2 12 -1.5
v -2 13 -1.5
v -2 14 -1.5
v -1 12 -1.5
v -1 13 -1.5
v 0 11 -1.5
v 0 12 -1.5
v 1 11 -1.5
v 1 13 -1.5
v 2 11 -1.5
v 2 13 -1.5
v 3 3 -1.5
v 3 7 -1.5
v 3 10 -1.5
v 3 11 -1.5
v 3 12 -1.5
v 3 13 -1.5
v 4 10 -1.5
v 4 12 -1.5
v -3 10 -2.5
v -3 12 -2.5
v -2 12 -2.5
v -2 13 -2.5
v -1 12 -2.5
v -1 13 -2.5
v 0 11 -2.5
v 0 12 -2.5
v 1 11 -2.5
v 1 13 -2.5
v 2 11 -2.5
v 2 13 -2.5
v 3 10 -2.5
v 3 11 -2.5
v -2 0 0.5
v -1 0 0.5
v 1 0 0.5
v 2 0 0.5
v -2 0 -0.5
v -1 0 -0.5
v 1 0 -0.5
v 2 0 -0.5
v -3 3 1.5
v 3 3 1.5
v -2 3 0.5
v -1 3 0.5
v 1 3 0.5
v 2 3 0.5
v -2 3 -0.5
v -1 3 -0.5
v 1 3 -0.5
v 2 3 -0.5
v -3 3 -1.5
v 3 3 -1.5
v -7 6 0.5
v -6 6 0.5
v -3 6 0.5
v 3 6 0.5
v 6 6 0.5
v 7 6 0.5
v -7 6 -0.5
v -6 6 -0.5
v -3 6 -0.5
v 3 6 -0.5
v 6 6 -0.5
v 7 6 -0.5
v -3 10 2.5
v -2 10 2.5
v 2 10 2.5
v 3 10 2.5
v -4 10 1.5
v -3 10 1.5
v -2 10 1.5
v 2 10 1.5
v 3 10 1.5
v 4 10 1.5
v -4 10 0.5
v -3 10 0.5
v -4 10 -0.5
v -3 10 -0.5
v -4 10 -1.5
v -3 10 -1.5
v 3 10 -1.5
v 4 10 -1.5
v -3 10 -2.5
v 3 10 -2.5
v -2 11 2.5
v -1 11 2.5
v 1 11 2.5
v 2 11 2.5
v -2 11 1.5
v -1 11 1.5
v 1 11 1.5
v 2 11 1.5
v -4 11 0.5
v -3 11 0.5
v -4 11 -0.5
v -3 11 -0.5
v -7 7 0.5
v -6 7 0.5
v -3 7 0.5
v 3 7 0.5
v 6 7 0.5
v 7 7 0.5
v -7 7 -0.5
v -6 7 -0.5
v -3 7 -0.5
v 3 7 -0.5
v 6 7 -0.5
v 7 7 -0.5
v 2 11 2.5
v 3 11 2.5
v -4 11 1.5
v -3 11 1.5
v 2 11 1.5
v 3 11 1.5
v -4 11 0.5
v -3 11 0.5
v 3 11 0.5
v 4 11 0.5
v -4 11 -0.5
v -3 11 -0.5
v 3 11 -0.5
v 4 11 -0.5
v -4 11 -1.5
v -3 11 -1.5
v 0 11 -1.5
v 1 11 -1.5
v 2 11 -1.5
v 3 11 -1.5
v 0 11 -2.5
v 1 11 -2.5
v 2 11 -2.5
v 3 11 -2.5
v -3 12 2.5
v -1 12 2.5
v 1 12 2.5
v 2 12 2.5
v -3 12 1.5
v -2 12 1.5
v -1 12 1.5
v 1 12 1.5
v 2 12 1.5
v 3 12 1.5
v 4 12 1.5
v -4 12 0.5
v -3 12 0.5
v -2 12 0.5
v 3 12 0.5
v 4 12 0.5
v -4 12 -0.5
v -3 12 -0.5
v -1 12 -0.5
v 3 12 -0.5
v 4 12 -0.5
v -3 12 -1.5
v -2 12 -1.5
v -1 12 -1.5
v 0 12 -1.5
v 3 12 -1.5
v 4 12 -1.5
v -3 12 -2.5
v -2 12 -2.5
v -1 12 -2.5
v 0 12 -2.5
v -3 13 1.5
v -2 13 1.5
v -1 13 1.5
v 3 13 1.5
v -3 13 0.5
v -2 13 0.5
v 0 13 0.5
v 1 13 0.5
v -2 13 -0.5
v -1 13 -0.5
v 0 13 -0.5
v 1 13 -0.5
v -2 13 -1.5
v -1 13 -1.5
v 1 13 -1.5
v 2 13 -1.5
v 3 13 -1.5
v -2 13 -2.5
v -1 13 -2.5
v 1 13 -2.5
v 2 13 -2.5
v 0 14 0.5
v 1 14 0.5
v -3 14 -0.5
v -2 14 -0.5
v 0 14 -0.5
v 1 14 -0.5
v -3 14 -1.5
v -2 14 -1.5

# faces
f 3/5/1 2/5/1 1/5/1
f 4/5/1 2/5/1 3/5/1
f 9/3/1 6/3/1 5/3/1
f 10/3/1 6/3/1 9/3/1
f 11/3/1 8/3/1 7/3/1
f 12/3/1 8/3/1 11/3/1
f 13/3/1 11/3/1 10/3/1
f 14/3/1 11/3/1 13/3/1
f 17/4/1 16/4/1 15/4/1
f 18/4/1 16/4/1 17/4/1
f 19/4/1 17/4/1 15/4/1
f 20/4/1 17/4/1 19/4/1
f 21/4/1 16/4/1 18/4/1
f 22/4/1 16/4/1 21/4/1
f 24/1/1 20/1/1 19/1/1
f 24/1/1 21/1/1 20/1/1
f 24/1/1 22/1/1 21/1/1
f 25/1/1 22/1/1 24/1/1
f 26/1/1 22/1/1 25/1/1
f 27/1/1 22/1/1 26/1/1
f 29/3/1 24/3/1 23/3/1
f 30/1/1 26/1/1 25/1/1
f 31/1/1 26/1/1 30/1/1
f 32/3/1 28/3/1 27/3/1
f 33/3/1 29/3/1 23/3/1
f 33/3/1 30/3/1 29/3/1
f 34/3/1 30/3/1 33/3/1
f 35/3/1 30/3/1 34/3/1
f 36/3/1 32/3/1 31/3/1
f 37/3/1 28/3/1 32/3/1
f 37/3/1 32/3/1 36/3/1
f 38/3/1 28/3/1 37/3/1
f 39/3/1 35/3/1 34/3/1
f 40/3/1 35/3/1 39/3/1
f 41/3/1 37/3/1 36/3/1
f 42/3/1 37/3/1 41/3/1
f 45/6/1 44/6/1 43/6/1
f 46/6/1 44/6/1 45/6/1
f 49/3/1 48/3/1 47/3/1
f 50/3/1 48/3/1 49/3/1
f 53/3/1 52/3/1 51/3/1
f 54/3/1 52/3/1 53/3/1
f 57/3/1 56/3/1 55/3/1
f 58/3/1 56/3/1 57/3/1
f 61/6/1 60/6/1 59/6/1
f 62/6/1 60/6/1 61/6/1
f 67/3/1 64/3/1 63/3/1
f 68/3/1 64/3/1 67/3/1
f 69/3/1 66/3/1 65/3/1
f 70/3/1 66/3/1 69/3/1
f 73/3/1 72/3/1 71/3/1
f 74/3/1 72/3/1 73/3/1
f 75/3/2 76/3/2 77/3/2
f 77/3/2 76/3/2 78/3/2
f 79/3/2 80/3/2 81/3/2
f 81/3/2 80/3/2 82/3/2
f 83/3/2 84/3/2 85/3/2
f 85/3/2 84/3/2 86/3/2
f 87/6/2 88/6/2 89/6/2
f 89/6/2 88/6/2 90/6/2
f 91/3/2 92/3/2 93/3/2
f 93/3/2 92/3/2 94/3/2
f 95/3/2 96/3/2 97/3/2
f 97/3/2 96/3/2 98/3/2
f 99/3/2 100/3/2 101/3/2
f 101/3/2 100/3/2 102/3/2
f 103/3/2 104/3/2 105/3/2
f 105/3/2 104/3/2 106/3/2
f 107/6/2 108/6/2 109/6/2
f 109/6/2 108/6/2 110/6/2
f 111/3/2 112/3/2 115/3/2
f 115/3/2 112/3/2 116/3/2
f 113/3/2 114/3/2 117/3/2
f 117/3/2 114/3/2 118/3/2
f 119/4/2 120/4/2 121/4/2
f 121/4/2 120/4/2 122/4/2
f 119/4/2 121/4/2 123/4/2
f 123/4/2 121/4/2 124/4/2
f 122/4/2 120/4/2 125/4/2
f 125/4/2 120/4/2 126/4/2
f 123/1/2 124/1/2 128/1/2
f 124/1/2 125/1/2 128/1/2
f 125/1/2 126/1/2 128/1/2
f 128/1/2 126/1/2 129/1/2
f 127/3/2 128/3/2 131/3/2
f 131/3/2 128/3/2 132/3/2
f 129/3/2 130/3/2 135/3/2
f 135/3/2 130/3/2 136/3/2
f 133/3/2 134/3/2 138/3/2
f 138/3/2 134/3/2 139/3/2
f 137/3/2 138/3/2 141/3/2
f 139/3/2 140/3/2 141/3/2
f 138/3/2 139/3/2 141/3/2
f 141/3/2 140/3/2 142/3/2
f 143/3/2 144/3/2 145/3/2
f 145/3/2 144/3/2 146/3/2
f 143/3/2 145/3/2 147/3/2
f 147/3/2 145/3/2 148/3/2
f 146/3/2 144/3/2 149/3/2
f 149/3/2 144/3/2 150/3/2
f 151/5/2 152/5/2 153/5/2
f 153/5/2 152/5/2 154/5/2
f 157/3/3 156/3/3 155/3/3
f 158/3/3 156/3/3 157/3/3
f 159/3/3 156/3/3 158/3/3
f 160/3/3 156/3/3 159/3/3
f 164/3/3 162/3/3 161/3/3
f 165/3/3 162/3/3 164/3/3
f 166/3/3 164/3/3 163/3/3
f 167/3/3 164/3/3 166/3/3
f 172/3/3 169/3/3 168/3/3
f 173/3/3 169/3/3 172/3/3
f 176/1/3 172/1/3 171/1/3
f 177/1/3 172/1/3 176/1/3
f 179/3/3 175/3/3 174/3/3
f 180/3/3 175/3/3 179/3/3
f 181/1/3 176/1/3 171/1/3
f 181/7/3 177/7/3 176/7/3
f 182/1/3 178/1/3 177/1/3
f 182/7/3 177/7/3 181/7/3
f 183/1/3 178/1/3 182/1/3
f 186/1/3 181/1/3 171/1/3
f 186/1/3 182/1/3 181/1/3
f 186/1/3 183/1/3 182/1/3
f 187/1/3 183/1/3 186/1/3
f 188/3/3 185/3/3 184/3/3
f 188/1/3 183/1/3 187/1/3
f 188/3/3 184/3/3 183/3/3
f 189/3/3 185/3/3 188/3/3
f 190/7/3 187/7/3 186/7/3
f 190/1/3 186/1/3 171/1/3
f 191/1/3 188/1/3 187/1/3
f 191/7/3 187/7/3 190/7/3
f 192/1/3 188/1/3 191/1/3
f 193/3/3 185/3/3 189/3/3
f 194/4/3 171/4/3 170/4/3
f 195/1/3 190/1/3 171/1/3
f 195/4/3 171/4/3 194/4/3
f 195/1/3 191/1/3 190/1/3
f 196/1/3 191/1/3 195/1/3
f 197/3/3 193/3/3 192/3/3
f 198/3/3 185/3/3 193/3/3
f 198/3/3 193/3/3 197/3/3
f 199/3/3 185/3/3 198/3/3
f 200/3/3 197/3/3 196/3/3
f 200/3/3 198/3/3 197/3/3
f 201/3/3 198/3/3 200/3/3
f 204/5/3 203/5/3 202/5/3
f 205/5/3 203/5/3 204/5/3
f 208/4/3 205/4/3 204/4/3
f 209/4/3 205/4/3 208/4/3
f 210/3/3 207/3/3 206/3/3
f 211/3/3 207/3/3 210/3/3
f 214/6/3 213/6/3 212/6/3
f 215/6/3 213/6/3 214/6/3
f 220/3/3 217/3/3 216/3/3
f 221/3/3 217/3/3 220/3/3
f 222/6/3 219/6/3 218/6/3
f 223/6/3 219/6/3 222/6/3
f 226/4/3 225/4/3 224/4/3
f 227/4/3 225/4/3 226/4/3
f 228/5/3 227/5/3 226/5/3
f 229/5/3 227/5/3 228/5/3
f 232/3/3 231/3/3 230/3/3
f 233/3/3 231/3/3 232/3/3
f 236/3/3 235/3/3 234/3/3
f 237/3/3 235/3/3 236/3/3
f 238/3/3 236/3/3 234/3/3
f 239/3/3 236/3/3 238/3/3
f 242/3/3 241/3/3 240/3/3
f 243/3/3 241/3/3 242/3/3
f 244/3/4 245/3/4 246/3/4
f 246/3/4 245/3/4 247/3/4
f 248/3/4 249/3/4 250/3/4
f 250/3/4 249/3/4 251/3/4
f 252/3/4 253/3/4 254/3/4
f 254/3/4 253/3/4 255/3/4
f 256/5/4 257/5/4 258/5/4
f 258/5/4 257/5/4 259/5/4
f 258/4/4 259/4/4 262/4/4
f 262/4/4 259/4/4 263/4/4
f 260/3/4 261/3/4 264/3/4
f 264/3/4 261/3/4 265/3/4
f 266/6/4 267/6/4 268/6/4
f 268/6/4 267/6/4 269/6/4
f 270/3/4 271/3/4 274/3/4
f 274/3/4 271/3/4 275/3/4
f 272/6/4 273/6/4 276/6/4
f 276/6/4 273/6/4 277/6/4
f 278/4/4 279/4/4 280/4/4
f 280/4/4 279/4/4 281/4/4
f 280/5/4 281/5/4 282/5/4
f 282/5/4 281/5/4 283/5/4
f 284/3/4 285/3/4 288/3/4
f 288/3/4 285/3/4 289/3/4
f 290/3/4 291/3/4 292/3/4
f 292/3/4 291/3/4 293/3/4
f 293/3/4 291/3/4 294/3/4
f 295/3/4 296/3/4 298/3/4
f 297/3/4 298/3/4 299/3/4
f 298/3/4 296/3/4 300/3/4
f 299/3/4 298/3/4 300/3/4
f 286/4/4 287/4/4 303/4/4
f 287/1/4 288/1/4 304/1/4
f 303/4/4 287/4/4 304/4/4
f 304/1/4 288/1/4 305/1/4
f 301/3/4 302/3/4 306/3/4
f 306/3/4 302/3/4 307/3/4
f 307/3/4 302/3/4 308/3/4
f 306/3/4 307/3/4 309/3/4
f 305/3/4 306/3/4 309/3/4
f 309/3/4 307/3/4 310/3/4
f 311/3/4 312/3/4 313/3/4
f 311/3/4 313/3/4 315/3/4
f 313/3/4 314/3/4 315/3/4
f 315/3/4 314/3/4 316/3/4
f 311/3/4 315/3/4 317/3/4
f 317/3/4 315/3/4 318/3/4
f 311/3/4 317/3/4 319/3/4
f 311/3/4 319/3/4 321/3/4
f 319/3/4 320/3/4 321/3/4
f 321/3/4 320/3/4 322/3/4
f 311/3/4 321/3/4 323/3/4
f 323/3/4 321/3/4 324/3/4
f 329/6/5 326/6/5 325/6/5
f 330/6/5 326/6/5 329/6/5
f 331/6/5 328/6/5 327/6/5
f 332/6/5 328/6/5 331/6/5
f 335/4/5 334/4/5 333/4/5
f 336/4/5 334/4/5 335/4/5
f 337/4/5 334/4/5 336/4/5
f 338/4/5 334/4/5 337/4/5
f 339/4/5 335/4/5 333/4/5
f 340/4/5 337/4/5 336/4/5
f 341/4/5 337/4/5 340/4/5
f 342/4/5 334/4/5 338/4/5
f 343/4/5 341/4/5 340/4/5
f 343/4/5 342/4/5 341/4/5
f 343/4/5 339/4/5 333/4/5
f 343/4/5 340/4/5 339/4/5
f 344/4/5 334/4/5 342/4/5
f 344/4/5 342/4/5 343/4/5
f 351/5/5 346/5/5 345/5/5
f 352/4/5 347/4/5 346/4/5
f 352/5/5 346/5/5 351/5/5
f 353/4/5 347/4/5 352/4/5
f 354/4/5 349/4/5 348/4/5
f 355/5/5 350/5/5 349/5/5
f 355/4/5 349/4/5 354/4/5
f 356/5/5 350/5/5 355/5/5
f 362/3/5 358/3/5 357/3/5
f 363/3/5 358/3/5 362/3/5
f 364/3/5 360/3/5 359/3/5
f 365/3/5 360/3/5 364/3/5
f 367/3/5 362/3/5 361/3/5
f 368/3/5 362/3/5 367/3/5
f 371/3/5 370/3/5 369/3/5
f 372/3/5 370/3/5 371/3/5
f 373/3/5 366/3/5 365/3/5
f 374/3/5 366/3/5 373/3/5
f 375/3/5 373/3/5 372/3/5
f 376/3/5 373/3/5 375/3/5
f 381/3/5 378/3/5 377/3/5
f 382/3/5 378/3/5 381/3/5
f 383/3/5 380/3/5 379/3/5
f 384/3/5 380/3/5 383/3/5
f 387/3/5 386/3/5 385/3/5
f 388/3/5 386/3/5 387/3/5
f 389/5/6 390/5/6 395/5/6
f 390/4/6 391/4/6 396/4/6
f 395/5/6 390/5/6 396/5/6
f 396/4/6 391/4/6 397/4/6
f 392/4/6 393/4/6 398/4/6
f 393/5/6 394/5/6 399/5/6
f 398/4/6 393/4/6 399/4/6
f 399/5/6 394/5/6 400/5/6
f 401/3/6 402/3/6 405/3/6
f 405/3/6 402/3/6 406/3/6
f 403/3/6 404/3/6 407/3/6
f 407/3/6 404/3/6 408/3/6
f 409/3/6 410/3/6 413/3/6
f 413/3/6 410/3/6 414/3/6
f 411/3/6 412/3/6 415/3/6
f 415/3/6 412/3/6 416/3/6
f 417/3/6 418/3/6 421/3/6
f 421/3/6 418/3/6 422/3/6
f 419/3/6 420/3/6 423/3/6
f 423/3/6 420/3/6 424/3/6
f 425/3/6 426/3/6 429/3/6
f 429/3/6 426/3/6 430/3/6
f 430/3/6 426/3/6 431/3/6
f 427/3/6 428/3/6 432/3/6
f 432/3/6 428/3/6 433/3/6
f 430/3/6 431/3/6 438/3/6
f 434/3/6 435/3/6 439/3/6
f 439/3/6 435/3/6 440/3/6
f 436/3/6 437/3/6 441/3/6
f 437/3/6 438/3/6 441/3/6
f 441/3/6 438/3/6 442/3/6
f 438/3/6 431/3/6 443/3/6
f 442/3/6 438/3/6 443/3/6
f 444/3/6 445/3/6 450/3/6
f 450/3/6 445/3/6 451/3/6
f 446/3/6 447/3/6 452/3/6
f 452/3/6 447/3/6 453/3/6
f 448/3/6 449/3/6 454/3/6
f 454/3/6 449/3/6 455/3/6
f 456/3/6 457/3/6 460/3/6
f 460/3/6 457/3/6 461/3/6
f 458/3/6 459/3/6 462/3/6
f 462/3/6 459/3/6 463/3/6
f 458/3/6 462/3/6 465/3/6
f 465/3/6 462/3/6 466/3/6
f 463/3/6 459/3/6 467/3/6
f 465/3/6 466/3/6 468/3/6
f 466/3/6 467/3/6 468/3/6
f 464/3/6 465/3/6 468/3/6
f 468/3/6 467/3/6 469/3/6
f 467/3/6 459/3/6 470/3/6
f 469/3/6 467/3/6 470/3/6
f 470/3/6 459/3/6 471/3/6
f 471/3/6 459/3/6 472/3/6
f 468/3/6 469/3/6 473/3/6
f 473/3/6 469/3/6 474/3/6
f 470/3/6 471/3/6 475/3/6
f 475/3/6 471/3/6 476/3/6
f 477/3/6 478/3/6 481/3/6
f 481/3/6 478/3/6 482/3/6
f 479/3/6 480/3/6 483/3/6
f 483/3/6 480/3/6 484/3/6
